#!OML:ASF H:\Male1\Project 1\Capture day 1\Session 1\Male1.ASF
:FULLY-SPECIFIED
:DEGREES
401
root 8.18406 15.3618 4.22945 179.817 -2.93279 -173.855
lowerback 19.4065 3.01432 15.2751
upperback 4.86165 5.27865 10.3587
thorax -4.91557 1.44853 1.63027
lowerneck -5.57182 8.21104 15.2714
upperneck -3.51942 9.6521 -25.1839
head 2.14089 4.13076 -10.0266
rclavicle 3.18055e-015 6.36111e-015
rhumerus 2.33717 38.4087 -69.1984
rradius 71.9037
rwrist -37.6622
rhand -18.4255 3.4242
rfingers 7.12502
rthumb 7.85968 -26.4097
lclavicle 3.18055e-015 6.36111e-015
lhumerus -51.9438 -7.91499 58.5831
lradius 126.788
lwrist 28.9792
lhand -36.1259 19.6032
lfingers 7.12502
lthumb -9.23128 49.3811
rfemur -10.2635 14.7397 7.2369
rtibia 35.8032
rfoot -7.66528 -36.2212
rtoes -13.7157
lfemur -18.6291 8.39796 -22.2532
ltibia 50.9169
lfoot -11.1389 0.616974
ltoes -1.46839
402
root 7.63619 15.7 4.17248 179.865 -2.73271 -174.85
lowerback 18.5219 3.08719 14.8218
upperback 4.80765 5.20116 10.1678
thorax -4.54927 1.48567 1.69431
lowerneck -5.55191 7.99228 14.9781
upperneck -3.01762 9.45043 -25.0228
head 2.20661 4.02623 -9.93416
rclavicle 1.51076e-014 -6.04305e-014
rhumerus 1.60339 37.3186 -65.4633
rradius 70.5671
rwrist -37.7024
rhand -20.2386 2.71926
rfingers 7.12502
rthumb 6.10946 -27.1726
lclavicle 1.51076e-014 -6.04305e-014
lhumerus -56.9662 -9.95378 55.6713
lradius 127.318
lwrist 26.0794
lhand -35.4978 16.7329
lfingers 7.12502
lthumb -8.62516 46.5367
rfemur -10.5532 13.8111 7.73777
rtibia 37.681
rfoot -5.26665 -29.4723
rtoes -17.6195
lfemur -15.6018 6.28724 -25.1753
ltibia 45.1454
lfoot -5.74531 1.63383
ltoes -0.9474
403
root 7.08958 16.0236 4.14027 179.78 -2.5049 -176.247
lowerback 18.0209 3.17171 13.9926
upperback 4.84258 5.19083 9.71685
thorax -4.30552 1.57534 1.64702
lowerneck -5.42583 7.7043 14.5243
upperneck -2.73934 9.11956 -24.8129
head 2.15486 3.86984 -9.81215
rclavicle -3.97569e-015 -6.36111e-014
rhumerus 0.308977 35.7801 -62.3704
rradius 69.4201
rwrist -38.0273
rhand -21.6446 2.49556
rfingers 7.12502
rthumb 4.75194 -27.4311
lclavicle -3.97569e-015 -6.36111e-014
lhumerus -61.6563 -12.2411 53.2101
lradius 127.173
lwrist 24.2951
lhand -36.1246 15.5108
lfingers 7.12502
lthumb -9.23006 45.2888
rfemur -11.5039 10.0527 8.62452
rtibia 41.4668
rfoot -2.89484 -25.9404
rtoes -27.1573
lfemur -12.6638 3.42322 -28.2553
ltibia 39.4932
lfoot -0.0152633 3.24437
ltoes -1.63522
404
root 6.54744 16.3356 4.11834 179.895 -2.35408 -177.378
lowerback 17.3816 3.29134 13.2638
upperback 4.88149 5.22474 9.22849
thorax -3.96387 1.68895 1.51023
lowerneck -5.61946 7.43701 13.8988
upperneck -2.13247 8.86023 -24.3656
head 2.24263 3.72732 -9.55704
rclavicle -3.49861e-014 -3.18055e-014
rhumerus -1.58592 34.014 -59.8261
rradius 68.8239
rwrist -38.8798
rhand -20.9088 1.4566
rfingers 7.12502
rthumb 5.46238 -28.453
lclavicle -3.49861e-014 -3.18055e-014
lhumerus -65.3716 -13.4628 51.3755
lradius 125.776
lwrist 24.708
lhand -36.6923 15.6862
lfingers 7.12502
lthumb -9.77781 45.4392
rfemur -12.7786 6.34684 10.0059
rtibia 45.456
rfoot -5.17844 -24.8138
rtoes -22.7577
lfemur -10.4776 -0.502475 -30.8144
ltibia 34.6237
lfoot 5.75919 5.77088
ltoes -2.91709
405
root 6.01302 16.65 4.09787 180.04 -2.61737 -178.371
lowerback 16.764 3.25125 12.5273
upperback 4.95046 5.05348 8.67895
thorax -3.60704 1.70087 1.35636
lowerneck -6.01923 7.26539 13.1592
upperneck -1.50205 8.73022 -23.7537
head 2.38609 3.63875 -9.20878
rclavicle -3.33958e-014 -2.00375e-013
rhumerus -4.00032 32.7267 -57.8134
rradius 68.7467
rwrist -38.758
rhand -21.6095 1.76116
rfingers 7.12502
rthumb 4.78582 -28.1648
lclavicle -3.33958e-014 -2.00375e-013
lhumerus -68.5549 -14.1256 49.9213
lradius 123.973
lwrist 27.542
lhand -37.1097 17.4275
lfingers 7.12502
lthumb -10.1805 47.1612
rfemur -13.7446 3.93126 11.9564
rtibia 48.7545
rfoot -5.95817 -25.7546
rtoes -22.8631
lfemur -9.05188 -3.7948 -32.7715
ltibia 31.0919
lfoot 7.17811 7.41547
ltoes 4.28417
406
root 5.49944 16.952 4.07857 180.295 -3.05242 -179.57
lowerback 16.2447 3.1794 11.6201
upperback 5.03263 4.87612 7.84188
thorax -3.283 1.72715 0.987247
lowerneck -6.19331 7.0058 12.3944
upperneck -1.43729 8.39286 -23.1155
head 2.29394 3.47928 -8.87648
rclavicle -4.21423e-014 -1.59028e-014
rhumerus -7.05868 31.369 -56.7
rradius 69.1473
rwrist -38.6866
rhand -20.9212 2.07089
rfingers 7.12502
rthumb 5.45041 -27.839
lclavicle -4.21423e-014 -1.59028e-014
lhumerus -70.0791 -14.0998 48.6566
lradius 121.695
lwrist 32.659
lhand -36.3332 18.6883
lfingers 7.12502
lthumb -9.43129 48.4573
rfemur -14.5945 2.36381 13.8438
rtibia 50.8506
rfoot -3.49423 -24.9664
rtoes -26.0955
lfemur -8.4865 -6.29065 -34.5603
ltibia 29.0273
lfoot 9.64479 3.30718
ltoes -17.1424
407
root 5.00871 17.1959 4.08354 180.585 -3.43807 -180.715
lowerback 15.9637 3.15845 10.5878
upperback 5.17944 4.76441 6.96836
thorax -3.01981 1.77014 0.638091
lowerneck -6.07265 6.7549 11.7085
upperneck -2.09501 7.94888 -22.7097
head 1.95216 3.29462 -8.65842
rclavicle -6.75868e-014 -1.87653e-013
rhumerus -10.3761 30.0772 -56.2811
rradius 69.6965
rwrist -38.6654
rhand -21.5303 2.60865
rfingers 7.12502
rthumb 4.86235 -27.3156
lclavicle -6.75868e-014 -1.87653e-013
lhumerus -70.5743 -13.3591 48.4513
lradius 118.906
lwrist 36.2269
lhand -37.9109 18.7933
lfingers 7.12502
lthumb -10.9533 48.4875
rfemur -15.5111 1.85339 16.0022
rtibia 51.9815
rfoot -3.63825 -22.3738
rtoes -29.2579
lfemur -8.05607 -7.52561 -35.8844
ltibia 28.6307
lfoot 7.91833 2.21821
ltoes -5.42585
